<?xml version="1.0" encoding="UTF-8" standalone="no"?>
<!-- Created with Inkscape (http://www.inkscape.org/) -->

<svg
   xmlns:dc="http://purl.org/dc/elements/1.1/"
   xmlns:cc="http://creativecommons.org/ns#"
   xmlns:rdf="http://www.w3.org/1999/02/22-rdf-syntax-ns#"
   xmlns:svg="http://www.w3.org/2000/svg"
   xmlns="http://www.w3.org/2000/svg"
   version="1.1"
   width="300"
   height="50"
   id="svg11393">
  <defs
     id="defs11395" />
  <metadata
     id="metadata11398">
    <rdf:RDF>
      <cc:Work
         rdf:about="">
        <dc:format>image/svg+xml</dc:format>
        <dc:type
           rdf:resource="http://purl.org/dc/dcmitype/StillImage" />
        <dc:title></dc:title>
      </cc:Work>
    </rdf:RDF>
  </metadata>
  <g
     transform="translate(-49.887899,-36.919298)"
     id="layer1">
    <g
       transform="matrix(1.2498395,0,0,1.2498395,1281.7153,-769.70632)"
       id="g9904">
      <path
         d="m -985.58847,701.54785 8.7913,0 5.49457,-13.73641 26.45241,0 5.57305,13.73641 8.79131,0 -23.78362,-55.5736 -6.82896,0 z m 16.95466,-20.32989 10.51817,-25.51048 0.15698,0 10.36118,25.51048 z"
         id="path9798"
         style="font-size:78.49479675px;font-style:normal;font-variant:normal;font-weight:normal;font-stretch:normal;text-align:center;line-height:100%;letter-spacing:-0.34999999px;writing-mode:lr-tb;text-anchor:middle;color:#000000;fill:#e5e5e5;fill-opacity:1;fill-rule:evenodd;stroke:none;stroke-width:12;marker:none;visibility:visible;font-family:Avenir LT Std 65 Medium;-inkscape-font-specification:Avenir LT Std 65 Medium" />
      <path
         d="m -906.9183,663.20091 -10.1257,0 0,-12.60178 -7.06444,0 0,12.60178 -8.16335,0 0,6.12251 8.16335,0 0,20.52886 c -0.22077,3.13649 0.26,5.98843 1.44233,8.55582 1.1823,2.5674 4.39073,3.92796 9.6253,4.08168 0.78001,0.007 1.81024,-0.085 3.09069,-0.27473 1.2804,-0.1897 2.36951,-0.51675 3.2673,-0.98117 l 0,-6.43649 c -0.72445,0.42354 -1.53229,0.71462 -2.42349,0.87324 -0.89126,0.15863 -1.75796,0.23385 -2.60011,0.22567 -2.55761,-0.0965 -4.1144,-1.00243 -4.67038,-2.71785 -0.55601,-1.71541 -0.77841,-3.6614 -0.6672,-5.83797 l 0,-18.01706 10.1257,0 z"
         id="path9800"
         style="font-size:78.49479675px;font-style:normal;font-variant:normal;font-weight:normal;font-stretch:normal;text-align:center;line-height:100%;letter-spacing:-0.34999999px;writing-mode:lr-tb;text-anchor:middle;color:#000000;fill:#e5e5e5;fill-opacity:1;fill-rule:evenodd;stroke:none;stroke-width:12;marker:none;visibility:visible;font-family:Avenir LT Std 65 Medium;-inkscape-font-specification:Avenir LT Std 65 Medium" />
      <path
         d="m -898.36384,701.54785 7.06444,0 0,-50.99384 -7.06444,0 z"
         id="path9802"
         style="font-size:78.49479675px;font-style:normal;font-variant:normal;font-weight:normal;font-stretch:normal;text-align:center;line-height:100%;letter-spacing:-0.34999999px;writing-mode:lr-tb;text-anchor:middle;color:#000000;fill:#e5e5e5;fill-opacity:1;fill-rule:evenodd;stroke:none;stroke-width:12;marker:none;visibility:visible;font-family:Avenir LT Std 65 Medium;-inkscape-font-specification:Avenir LT Std 65 Medium" />
      <path
         d="m -878.86764,673.29009 c 1.23627,-1.03511 2.64916,-1.98685 4.23867,-2.85521 1.58948,-0.86831 3.70881,-1.32946 6.358,-1.38346 3.01381,0.0867 5.24761,0.91416 6.7014,2.48237 1.45374,1.56827 2.17654,3.35727 2.16839,5.36701 l 0,1.56988 -5.18059,0 c -5.79874,-0.0621 -10.62611,0.88635 -14.4821,2.8454 -3.85601,1.95909 -5.8576,5.30161 -6.00477,10.02758 0.10465,3.6238 1.38671,6.38416 3.84619,8.28109 2.45946,1.89694 5.46839,2.85194 9.02679,2.86503 2.81921,0.0245 5.30485,-0.47587 7.45691,-1.5012 2.15201,-1.02532 4.00969,-1.42285 5.57306,-3.79238 l 0.15698,0 c -3e-5,1.88385 0.0785,2.4678 0.23548,4.35165 l 6.27951,0 c -0.11614,-0.9779 -0.19791,-2.02448 -0.2453,-3.13975 -0.0475,-1.11526 -0.0703,-2.31883 -0.0687,-3.61071 l 0,-18.9955 c 0.0392,-3.33269 -1.17744,-6.20425 -3.64996,-8.61469 -2.47258,-2.41038 -6.43652,-3.67282 -11.89181,-3.78733 -2.6361,-0.002 -5.25256,0.45301 -7.84938,1.36383 -2.59684,0.91089 -4.89932,2.2878 -6.90745,4.13074 z m 19.46646,10.36118 0,2.35481 c 0.049,2.64918 -0.7359,5.08249 -2.35481,7.29992 -1.61896,2.21746 -4.36624,3.39486 -8.24185,3.53222 -2.46276,0.0131 -4.40548,-0.46441 -5.82816,-1.43251 -1.42271,-0.96808 -2.14878,-2.50525 -2.1782,-4.61151 0.20113,-2.90752 1.83968,-4.8437 4.91567,-5.80854 3.07596,-0.9648 6.3825,-1.4096 9.91965,-1.33439 z"
         id="path9804"
         style="font-size:78.49479675px;font-style:normal;font-variant:normal;font-weight:normal;font-stretch:normal;text-align:center;line-height:100%;letter-spacing:-0.34999999px;writing-mode:lr-tb;text-anchor:middle;color:#000000;fill:#e5e5e5;fill-opacity:1;fill-rule:evenodd;stroke:none;stroke-width:12;marker:none;visibility:visible;font-family:Avenir LT Std 65 Medium;-inkscape-font-specification:Avenir LT Std 65 Medium" />
      <path
         d="m -820.29415,669.52239 c -1.38839,-2.17817 -3.22318,-3.74805 -5.50438,-4.70963 -2.28125,-0.96151 -4.68512,-1.43247 -7.21162,-1.41289 -3.64507,-0.008 -6.87312,0.93052 -9.68417,2.81597 -2.81107,1.88552 -4.29263,4.76689 -4.44471,8.64412 0.0965,3.47338 1.23791,5.94593 3.42429,7.41767 2.18637,1.47177 4.83881,2.53144 7.95731,3.179 1.71213,0.28292 3.95276,0.7964 5.98871,1.54044 2.03591,0.74407 3.14463,2.1406 3.32617,4.1896 -0.0883,1.60423 -0.89289,2.79144 -2.41368,3.56166 -1.52084,0.77022 -3.59467,1.15288 -5.48831,1.14797 -2.0196,-0.0409 -3.74973,-0.48895 -5.1904,-1.34421 -1.4407,-0.85525 -2.7195,-1.87239 -3.83639,-3.05144 l -5.33757,4.39565 c 1.82988,2.47256 3.91977,4.19942 6.26969,5.18059 2.34989,0.98117 5.04811,1.45213 8.09467,1.41289 3.85598,0.0376 7.29008,-0.8618 10.30231,-2.69823 3.01217,-1.83642 4.60166,-4.83554 4.7685,-8.99735 -0.0687,-3.41446 -1.10876,-5.90664 -3.12013,-7.47653 -2.01143,-1.56986 -4.5821,-2.68839 -7.71202,-3.35561 -1.7694,-0.27143 -4.06559,-0.76856 -6.24705,-1.49138 -2.18149,-0.72278 -3.37197,-2.16183 -3.57147,-4.31716 0.0523,-1.34091 0.67373,-2.36787 1.86423,-3.08088 1.19048,-0.71296 2.95684,-1.07272 4.65755,-1.07929 1.75955,0.0262 3.26401,0.38596 4.5134,1.07929 1.24933,0.69339 2.28283,1.56336 3.1005,2.60992 z"
         id="path9806"
         style="font-size:78.49479675px;font-style:normal;font-variant:normal;font-weight:normal;font-stretch:normal;text-align:center;line-height:100%;letter-spacing:-0.34999999px;writing-mode:lr-tb;text-anchor:middle;color:#000000;fill:#e5e5e5;fill-opacity:1;fill-rule:evenodd;stroke:none;stroke-width:12;marker:none;visibility:visible;font-family:Avenir LT Std 65 Medium;-inkscape-font-specification:Avenir LT Std 65 Medium" />
      <path
         d="m -785.57683,682.94482 c 0.0392,-3.83636 1.13815,-6.93686 3.29674,-9.30151 2.15856,-2.3646 5.14132,-3.58125 8.94829,-3.64996 3.80692,0.0687 6.78968,1.28536 8.94829,3.64996 2.15854,2.36465 3.25746,5.46515 3.29674,9.30151 -0.0393,3.8364 -1.13819,6.9369 -3.29674,9.30152 -2.15861,2.36463 -5.14137,3.58128 -8.94829,3.64996 -3.80697,-0.0687 -6.78973,-1.28533 -8.94829,-3.64996 -2.1586,-2.36462 -3.25751,-5.46512 -3.29674,-9.30152 z m -7.53541,0 c 0.13246,5.55345 2.04574,10.16496 5.73986,13.83453 3.6941,3.66959 8.37429,5.57306 14.04058,5.71043 5.66624,-0.13737 10.34643,-2.04084 14.04057,-5.71043 3.69408,-3.66957 5.60736,-8.28108 5.73986,-13.83453 -0.1325,-5.55341 -2.04578,-10.16491 -5.73986,-13.83453 -3.69415,-3.66955 -8.37433,-5.57302 -14.04057,-5.71042 -5.66629,0.1374 -10.34648,2.04088 -14.04058,5.71043 -3.69412,3.66961 -5.6074,8.28111 -5.73986,13.83452 z"
         id="path9808"
         style="font-size:78.49479675px;font-style:normal;font-variant:normal;font-weight:normal;font-stretch:normal;text-align:center;line-height:100%;letter-spacing:-0.34999999px;writing-mode:lr-tb;text-anchor:middle;color:#000000;fill:#e5e5e5;fill-opacity:1;fill-rule:evenodd;stroke:none;stroke-width:12;marker:none;visibility:visible;font-family:Avenir LT Std 65 Medium;-inkscape-font-specification:Avenir LT Std 65 Medium" />
      <path
         d="m -743.89379,701.54785 7.06444,0 0,-32.22445 8.47733,0 0,-6.12251 -8.39883,0 0,-3.29539 c -0.072,-2.61641 0.28779,-4.66379 1.07929,-6.14214 0.79146,-1.47824 2.44637,-2.23047 4.96473,-2.25669 0.70151,-0.005 1.37852,0.0442 2.03102,0.14718 0.65246,0.10307 1.30984,0.28949 1.97216,0.55926 l 0.78494,-6.2795 c -0.97956,-0.22888 -1.90514,-0.37933 -2.77672,-0.45134 -0.87163,-0.0719 -1.69909,-0.1046 -2.48237,-0.0981 -4.58209,-0.003 -7.8592,1.21999 -9.83135,3.66959 -1.97216,2.44971 -2.93371,6.14546 -2.88464,11.08725 l 0,3.0599 -8.00637,0 0,6.12251 8.00637,0 z"
         id="path9810"
         style="font-size:78.49479675px;font-style:normal;font-variant:normal;font-weight:normal;font-stretch:normal;text-align:center;line-height:100%;letter-spacing:-0.34999999px;writing-mode:lr-tb;text-anchor:middle;color:#000000;fill:#e5e5e5;fill-opacity:1;fill-rule:evenodd;stroke:none;stroke-width:12;marker:none;visibility:visible;font-family:Avenir LT Std 65 Medium;-inkscape-font-specification:Avenir LT Std 65 Medium" />
      <path
         d="m -698.82811,701.54785 18.13206,0 c 6.62785,-0.08 12.20187,-1.42887 16.72208,-4.04679 4.52013,-2.61791 7.93703,-6.02512 10.25071,-10.22164 2.31358,-4.19649 3.47451,-8.70261 3.4828,-13.51837 0.0741,-3.58016 -0.71086,-7.50484 -2.35481,-11.77407 -1.64406,-4.26914 -4.59194,-7.96707 -8.84364,-11.09379 -4.25178,-3.12661 -10.25219,-4.76626 -18.00124,-4.91894 l -19.38796,0 z m 7.5354,-48.50916 11.3031,0 c 5.95194,0.12506 10.50554,1.39259 13.66083,3.80259 3.15521,2.41009 5.30749,5.21261 6.45684,8.40755 1.14926,3.19502 1.69096,6.03243 1.62511,8.51222 -0.18647,6.87313 -2.52165,12.04391 -7.00557,15.51233 -4.48399,3.46846 -9.99817,5.20513 -16.54256,5.21003 l -9.49775,0 z"
         id="path9812"
         style="font-size:78.49479675px;font-style:normal;font-variant:normal;font-weight:normal;font-stretch:normal;text-align:center;line-height:100%;letter-spacing:-0.34999999px;writing-mode:lr-tb;text-anchor:middle;color:#000000;fill:#e5e5e5;fill-opacity:1;fill-rule:evenodd;stroke:none;stroke-width:12;marker:none;visibility:visible;font-family:Avenir LT Std 65 Medium;-inkscape-font-specification:Avenir LT Std 65 Medium" />
      <path
         d="m -607.7205,685.53512 0,-2.5118 c 0.0637,-5.00723 -1.31971,-9.47483 -4.15036,-13.40282 -2.83071,-3.92792 -7.49128,-6.00146 -13.9817,-6.22063 -5.67774,0.11778 -10.27616,1.98201 -13.79529,5.59268 -3.51914,3.61075 -5.33104,8.2615 -5.43569,13.95227 0.0621,5.65647 1.78246,10.29741 5.16097,13.92284 3.37849,3.62543 8.04232,5.49947 13.99151,5.62212 3.56654,0.002 6.7161,-0.62959 9.44869,-1.89367 2.73253,-1.26407 5.97039,-3.8851 7.92787,-6.43452 l -5.33758,-4.08168 c -1.35732,1.70889 -3.75464,3.77392 -5.40625,4.76653 -1.65167,0.99263 -3.5486,1.49957 -5.6908,1.52082 -3.37362,-0.0441 -6.28116,-1.03513 -8.72262,-2.97295 -2.4415,-1.93781 -3.72029,-4.55753 -3.83639,-7.85919 z m -29.82764,-5.65155 c 0.0442,-2.6148 1.094,-5.0383 3.14957,-7.27049 2.05554,-2.23214 4.85188,-3.41936 8.38902,-3.56166 3.56327,0.0638 6.22878,1.09404 7.99656,3.0907 1.76771,1.99671 2.68674,4.57719 2.75709,7.74145 z"
         id="path9814"
         style="font-size:78.49479675px;font-style:normal;font-variant:normal;font-weight:normal;font-stretch:normal;text-align:center;line-height:100%;letter-spacing:-0.34999999px;writing-mode:lr-tb;text-anchor:middle;color:#000000;fill:#e5e5e5;fill-opacity:1;fill-rule:evenodd;stroke:none;stroke-width:12;marker:none;visibility:visible;font-family:Avenir LT Std 65 Medium;-inkscape-font-specification:Avenir LT Std 65 Medium" />
      <path
         d="m -574.2673,669.52239 c -1.38839,-2.17817 -3.22318,-3.74805 -5.50438,-4.70963 -2.28125,-0.96151 -4.68512,-1.43247 -7.21161,-1.41289 -3.64507,-0.008 -6.87313,0.93052 -9.68418,2.81597 -2.81106,1.88552 -4.29263,4.76689 -4.4447,8.64412 0.0965,3.47338 1.2379,5.94593 3.42429,7.41767 2.18637,1.47177 4.8388,2.53144 7.9573,3.179 1.71213,0.28292 3.96291,0.7964 5.99886,1.54044 2.03591,0.74407 3.14464,2.1406 3.32618,4.1896 -0.0883,1.60423 -0.89289,2.79144 -2.41369,3.56166 -1.52084,0.77022 -3.60481,1.15288 -5.49846,1.14797 -2.01959,-0.0409 -3.74972,-0.48895 -5.1904,-1.34421 -1.4407,-0.85525 -2.71949,-1.87239 -3.83638,-3.05144 l -5.33758,4.39565 c 1.82988,2.47256 3.91978,4.19942 6.26969,5.18059 2.3499,0.98117 5.04812,1.45213 8.09467,1.41289 3.85599,0.0376 7.29009,-0.8618 10.30231,-2.69823 3.01217,-1.83642 4.60167,-4.83554 4.7685,-8.99735 -0.0687,-3.41446 -1.10876,-5.90664 -3.12013,-7.47653 -2.01143,-1.56986 -4.5821,-2.68839 -7.71201,-3.35561 -1.7694,-0.27143 -4.27763,-0.76856 -6.45909,-1.49138 -2.18148,-0.72278 -3.37197,-2.16183 -3.57146,-4.31716 0.0523,-1.34091 0.67373,-2.36787 1.86423,-3.08088 1.19047,-0.71296 3.16886,-1.07272 4.86958,-1.07929 1.75955,0.0262 3.26401,0.38596 4.51339,1.07929 1.24934,0.69339 2.28284,1.56336 3.1005,2.60992 z"
         id="path9816"
         style="font-size:78.49479675px;font-style:normal;font-variant:normal;font-weight:normal;font-stretch:normal;text-align:center;line-height:100%;letter-spacing:-0.34999999px;writing-mode:lr-tb;text-anchor:middle;color:#000000;fill:#e5e5e5;fill-opacity:1;fill-rule:evenodd;stroke:none;stroke-width:12;marker:none;visibility:visible;font-family:Avenir LT Std 65 Medium;-inkscape-font-specification:Avenir LT Std 65 Medium" />
      <path
         d="m -565.16646,701.54785 7.06444,0 0,-38.34694 -7.06444,0 z"
         id="path9818"
         style="font-size:78.49479675px;font-style:normal;font-variant:normal;font-weight:normal;font-stretch:normal;text-align:center;line-height:100%;letter-spacing:-0.34999999px;writing-mode:lr-tb;text-anchor:middle;color:#000000;fill:#e5e5e5;fill-opacity:1;fill-rule:evenodd;stroke:none;stroke-width:12;marker:none;visibility:visible;font-family:Avenir LT Std 65 Medium;-inkscape-font-specification:Avenir LT Std 65 Medium" />
      <path
         d="m -511.94453,663.20091 -7.06444,0 0,5.9698 -0.15699,0 c -1.42764,-2.013 -3.30168,-3.05132 -5.62212,-4.13228 -2.3205,-1.08089 -4.76362,-1.62707 -7.32936,-1.63856 -5.83635,0.12759 -10.43151,2.01144 -13.78547,5.65155 -3.35398,3.64018 -5.06449,8.27131 -5.13153,13.8934 0.072,5.53383 1.85114,10.06684 5.33758,13.59905 3.48642,3.53222 8.01289,5.3572 13.57942,5.47494 2.60172,0.005 5.05138,-0.53473 7.34898,-1.61893 2.29755,-1.08419 4.13888,-2.00764 5.524,-4.23981 l 0.23549,0 0,4.75983 c 0.0981,3.28366 -0.82423,6.21409 -2.76691,8.79131 -1.94275,2.5772 -5.49459,3.93775 -10.65553,4.08167 -2.6917,-0.007 -5.11847,-0.5233 -7.2803,-1.55025 -2.16186,-1.02697 -4.15691,-2.52489 -5.98515,-4.49377 l -4.78812,5.96553 c 2.61808,2.40713 5.4275,4.12745 8.42827,5.16096 3.00073,1.03349 6.26149,1.53716 9.78229,1.51101 6.1699,-0.0965 11.07903,-1.8855 14.72739,-5.36701 3.64828,-3.48154 5.51578,-8.07669 5.6025,-13.78547 z m -19.30948,6.79244 c 3.80693,0.0687 6.78969,1.28536 8.9483,3.64996 2.15854,2.36465 3.25745,5.46515 3.29674,9.30151 -0.0393,3.81678 -1.1382,6.83879 -3.29674,9.06604 -2.15861,2.22726 -5.14137,3.36542 -8.9483,3.41448 -3.80696,-0.0491 -6.78972,-1.18722 -8.94829,-3.41448 -2.15859,-2.22725 -3.2575,-5.24926 -3.29674,-9.06604 0.0392,-3.83636 1.13815,-6.93686 3.29674,-9.30151 2.15856,-2.3646 5.14133,-3.58125 8.94829,-3.64996 z"
         id="path9820"
         style="font-size:78.49479675px;font-style:normal;font-variant:normal;font-weight:normal;font-stretch:normal;text-align:center;line-height:100%;letter-spacing:-0.34999999px;writing-mode:lr-tb;text-anchor:middle;color:#000000;fill:#e5e5e5;fill-opacity:1;fill-rule:evenodd;stroke:none;stroke-width:12;marker:none;visibility:visible;font-family:Avenir LT Std 65 Medium;-inkscape-font-specification:Avenir LT Std 65 Medium" />
      <path
         d="m -504.02478,701.54785 7.06444,0 0,-18.41775 c 0.0638,-4.29424 1.05474,-7.44053 2.97295,-9.43888 1.91817,-1.99829 4.38091,-3.72073 7.38823,-3.69787 2.31063,-0.0376 4.28278,0.68522 5.91646,2.16839 1.63362,1.48324 2.48724,3.95252 2.56086,7.40785 l 0,21.97826 7.06445,0 0,-23.9406 c -0.11124,-4.91892 -1.45872,-8.52309 -4.04244,-10.81252 -2.58378,-2.28937 -5.73661,-3.42099 -9.4585,-3.39486 -2.90429,0.0328 -5.43571,0.65416 -7.59427,1.86423 -2.15859,1.21015 -3.70884,2.19104 -4.65076,4.18605 l -0.15698,0 0,-6.24924 -7.06444,0 z"
         id="path9822"
         style="font-size:78.49479675px;font-style:normal;font-variant:normal;font-weight:normal;font-stretch:normal;text-align:center;line-height:100%;letter-spacing:-0.34999999px;writing-mode:lr-tb;text-anchor:middle;color:#000000;fill:#e5e5e5;fill-opacity:1;fill-rule:evenodd;stroke:none;stroke-width:12;marker:none;visibility:visible;font-family:Avenir LT Std 65 Medium;-inkscape-font-specification:Avenir LT Std 65 Medium" />
      <rect
         width="6.9544787"
         height="6.9544787"
         x="-565.16644"
         y="650.59912"
         id="rect9845"
         style="color:#000000;fill:#e5e5e5;fill-opacity:1;fill-rule:evenodd;stroke:none;stroke-width:12;marker:none;visibility:visible;display:inline;overflow:visible;enable-background:accumulate" />
    </g>
  </g>
</svg>
